<?xml version="1.0" standalone="no"?>
<!DOCTYPE svg PUBLIC "-//W3C//DTD SVG 20010904//EN"
 "http://www.w3.org/TR/2001/REC-SVG-20010904/DTD/svg10.dtd">
<svg version="1.0" xmlns="http://www.w3.org/2000/svg"
 width="1667.000000pt" height="1667.000000pt" viewBox="0 0 1667.000000 1667.000000"
 preserveAspectRatio="xMidYMid meet">
<metadata>
Created by potrace 1.14, written by Peter Selinger 2001-2017
</metadata>
<g transform="translate(0.000000,1667.000000) scale(0.100000,-0.100000)"
fill="#000000" stroke="none">
<path d="M0 8335 l0 -8335 8335 0 8335 0 0 8335 0 8335 -8335 0 -8335 0 0
-8335z m7590 6730 c759 -69 1261 -254 1564 -576 359 -382 536 -820 536 -1329
0 -328 -70 -616 -225 -935 -122 -248 -253 -432 -446 -625 -318 -316 -691 -535
-1196 -700 -162 -53 -483 -138 -610 -160 -40 -7 -73 -17 -73 -21 0 -10 230
-321 537 -726 486 -640 845 -1115 1275 -1688 240 -319 534 -711 654 -871 121
-160 255 -340 299 -400 44 -60 85 -109 90 -108 5 0 535 772 1177 1715 643 943
1176 1725 1186 1738 l17 24 315 -9 c189 -6 432 -6 608 0 l293 9 29 -28 30 -29
0 -141 0 -141 -28 -27 c-23 -22 -38 -27 -78 -27 -77 0 -314 -27 -392 -45 -85
-20 -163 -65 -274 -160 -204 -175 -422 -454 -1488 -1900 -365 -495 -758 -1025
-873 -1177 l-210 -277 16 -40 c9 -22 535 -789 1169 -1703 634 -915 1198 -1735
1254 -1824 332 -525 545 -799 673 -864 64 -32 172 -49 361 -56 159 -6 166 -7
193 -32 l27 -26 0 -156 c0 -153 -1 -157 -24 -179 l-25 -23 -383 12 c-363 12
-755 10 -1228 -6 l-186 -7 -140 214 c-174 264 -261 403 -426 679 -112 187
-2004 2999 -2018 2999 -6 0 -524 -717 -726 -1005 -471 -672 -1256 -1902 -1794
-2813 l-44 -74 -115 7 c-285 16 -620 18 -879 6 l-274 -12 -29 28 -29 28 0 151
0 151 28 26 c26 24 34 26 177 31 252 10 380 41 481 117 203 153 413 433 1982
2638 l891 1252 -100 167 c-56 92 -149 228 -208 303 -243 306 -628 826 -1101
1485 -744 1037 -1357 1822 -2068 2649 l-215 249 29 96 29 96 170 -5 c551 -16
859 7 1185 90 163 41 275 82 430 156 668 322 1020 905 1020 1690 0 657 -260
1117 -791 1398 -363 192 -802 277 -1349 262 -380 -10 -673 -51 -996 -139 -101
-27 -121 -36 -131 -57 -26 -55 -45 -255 -65 -685 -10 -204 -13 -986 -13 -3210
0 -3044 2 -3229 41 -3455 32 -188 72 -258 177 -309 128 -63 302 -90 732 -112
199 -10 234 -14 258 -31 l27 -19 0 -158 c0 -155 0 -158 -25 -181 l-25 -24
-393 13 c-215 7 -500 16 -632 21 -404 16 -963 12 -1779 -12 l-779 -22 -23 28
c-23 26 -24 34 -24 181 l0 154 28 19 c22 16 51 21 162 26 662 34 864 79 938
213 32 59 68 209 81 340 25 248 31 801 30 3068 0 2333 -9 3545 -29 3820 -28
392 -80 475 -335 536 -106 25 -613 69 -800 69 -11 0 -33 11 -48 25 l-27 26 0
154 0 154 28 21 c26 22 33 22 187 16 1036 -41 1521 -49 2165 -37 300 6 687 16
860 22 719 25 831 27 1185 24 229 -3 436 -10 545 -20z"/>
</g>
</svg>
