<svg xmlns="http://www.w3.org/2000/svg" viewBox="0 0 43.56 11.84"><defs><style>.cls-1{fill:#f1f2f2;}</style></defs><title>Asset 1</title><g id="Layer_2" data-name="Layer 2"><g id="Layer_1-2" data-name="Layer 1"><path class="cls-1" d="M7.15,4.28c0,2.85-1.75,4.26-3.62,4.26S0,7,0,4.44,1.6.19,3.63.19,7.15,1.78,7.15,4.28ZM.59,4.42c0,1.83,1.06,3.64,3,3.64s3-1.74,3-3.74c0-1.71-.93-3.65-3-3.65S.59,2.54.59,4.42Z"/><path class="cls-1" d="M8.58,4.48c0-.71,0-1.29-.05-1.83h.55l0,1.09h0a2.29,2.29,0,0,1,2.13-1.22c1.47,0,2.47,1.22,2.47,2.91,0,2.06-1.22,3.11-2.61,3.11a2.2,2.2,0,0,1-2-1.07h0v3.31H8.58Zm.57,1.66a2.4,2.4,0,0,0,0,.46,1.93,1.93,0,0,0,1.89,1.46c1.32,0,2.08-1.07,2.08-2.61a2.2,2.2,0,0,0-2-2.46A2,2,0,0,0,9.23,4.52a2.17,2.17,0,0,0-.08.5Z"/><path class="cls-1" d="M16,1V2.65h1.64v.46H16V6.85c0,.73.23,1.19.84,1.19A2.08,2.08,0,0,0,17.5,8l.07.44a2.05,2.05,0,0,1-.8.14,1.2,1.2,0,0,1-1-.41,2.09,2.09,0,0,1-.35-1.37V3.11h-1V2.65h1V1.17Z"/><path class="cls-1" d="M23.76,5.47A2.79,2.79,0,0,1,21,8.54a2.69,2.69,0,0,1-2.63-3,2.77,2.77,0,0,1,2.72-3.05A2.68,2.68,0,0,1,23.76,5.47Zm-4.82.07A2.3,2.3,0,0,0,21,8.06,2.33,2.33,0,0,0,23.18,5.5,2.29,2.29,0,0,0,21.07,3,2.28,2.28,0,0,0,18.94,5.54Z"/><path class="cls-1" d="M25.23,4c0-.52,0-.92-.05-1.37h.53l0,1h0a2,2,0,0,1,1.87-1.15,1.74,1.74,0,0,1,1.65,1.25h0A2.22,2.22,0,0,1,29.91,3a2,2,0,0,1,1.37-.47c.56,0,1.88.31,1.88,2.49V8.4h-.57V5.07c0-1.3-.5-2.07-1.5-2.07a1.67,1.67,0,0,0-1.51,1.15,1.61,1.61,0,0,0-.1.57V8.4h-.57V4.81c0-1-.5-1.81-1.43-1.81a1.8,1.8,0,0,0-1.6,1.3,1.94,1.94,0,0,0-.08.56V8.4h-.57Z"/><path class="cls-1" d="M40.94,8.23l-.63.64L38.42,6.05a5,5,0,0,0-.37-.56,2,2,0,0,0-.38-.38,1.07,1.07,0,0,0-.41-.21,1.49,1.49,0,0,0-.49-.07H36V8.4H35V0h2.5a3.64,3.64,0,0,1,1,.14,2.23,2.23,0,0,1,.81.42,1.88,1.88,0,0,1,.54.7,2.45,2.45,0,0,1,.19,1,2.53,2.53,0,0,1-.13.8,2.15,2.15,0,0,1-.38.66,2.51,2.51,0,0,1-.58.49,3.1,3.1,0,0,1-.77.31v0a2,2,0,0,1,.36.22,2,2,0,0,1,.3.28l.28.37c.09.14.19.3.3.49ZM36,.89V3.94H37.3A2.15,2.15,0,0,0,38,3.83a1.61,1.61,0,0,0,.54-.32A1.57,1.57,0,0,0,38.88,3,1.83,1.83,0,0,0,39,2.32a1.32,1.32,0,0,0-.44-1A1.88,1.88,0,0,0,37.31.89Z"/><path class="cls-1" d="M39.52,6l.83,1.25c.21.32.39.62.59,1h0c.19-.35.39-.65.58-1L42.36,6H43.5l-2,2.81,2,3h-1.2l-.85-1.31c-.23-.34-.42-.66-.62-1h0c-.19.35-.39.66-.61,1l-.84,1.31H38.25l2.06-3-2-3Z"/></g></g></svg>