<svg xmlns="http://www.w3.org/2000/svg" viewBox="0 0 19.41 21.84"><defs><style>.cls-1{fill:#fff;}</style></defs><title>tickAsset 1</title><g id="Layer_2" data-name="Layer 2"><g id="Layer_1-2" data-name="Layer 1"><g id="Layer_1-2-2" data-name="Layer 1-2"><path class="cls-1" d="M0,21.84V0H19.41V21.84Zm7.35-3.79,0,0-.12-.17a31.2,31.2,0,0,0-2.66-3.77c-.42-.49-.87-1-1.32-1.42a.61.61,0,0,0-.35-.19,2.2,2.2,0,0,0-1.43.36.43.43,0,0,0-.13.65,2,2,0,0,0,.29.36,38,38,0,0,1,2.73,3.08,29.55,29.55,0,0,1,2.05,3.13.69.69,0,0,0,.51.36,3.41,3.41,0,0,0,1.31-.06A.51.51,0,0,0,8.57,20a57.75,57.75,0,0,1,2.32-6,62.74,62.74,0,0,1,3.68-7q1.57-2.57,3.39-5a1.32,1.32,0,0,0,.2-.32c.12-.31.06-.57-.32-.58a3.73,3.73,0,0,0-.82.06,1.87,1.87,0,0,0-1.37.81c-.24.38-.52.73-.77,1.1A65.11,65.11,0,0,0,8.06,16.2C7.82,16.82,7.59,17.44,7.35,18.05Z"/><path d="M7.35,18.05c.24-.61.47-1.23.71-1.85a64.6,64.6,0,0,1,6.82-13c.25-.37.53-.72.77-1.1A1.87,1.87,0,0,1,17,1.24a3.73,3.73,0,0,1,.82-.06c.38,0,.44.27.32.58a1.73,1.73,0,0,1-.2.32q-1.82,2.4-3.39,5a62.74,62.74,0,0,0-3.68,7,58.47,58.47,0,0,0-2.32,6,.48.48,0,0,1-.38.36,3.4,3.4,0,0,1-1.31.07.71.71,0,0,1-.51-.36,29.55,29.55,0,0,0-2-3.13,38,38,0,0,0-2.73-3.08,2,2,0,0,1-.29-.36.44.44,0,0,1,.13-.65,2.21,2.21,0,0,1,1.44-.36.61.61,0,0,1,.34.19c.45.46.89.93,1.32,1.42a31.2,31.2,0,0,1,2.66,3.77l.12.17Z"/></g></g></g></svg>