<svg xmlns="http://www.w3.org/2000/svg" viewBox="0 0 8.46 8.33"><defs><style>.cls-1{fill:#fff;}</style></defs><title>tickAsset 3</title><g id="Layer_2" data-name="Layer 2"><g id="Layer_1-2" data-name="Layer 1"><path class="cls-1" d="M0,0H8.48V8.35H0ZM2.44,6.08c-.1-.23-.19-.44-.29-.65a3,3,0,0,0-.55-.84.48.48,0,0,0-.43-.17A1.4,1.4,0,0,0,.5,4.8l.28.14a1.27,1.27,0,0,1,.41.48A13.35,13.35,0,0,1,2.1,7.51a.64.64,0,0,0,0,.09l.7-.49A.31.31,0,0,0,2.93,7a11.49,11.49,0,0,1,.92-1.86A16.23,16.23,0,0,1,5.93,2.44,13.73,13.73,0,0,1,7.59,1l.27-.2L7.69.49A15.64,15.64,0,0,0,2.44,6.08Z" transform="translate(-0.02 -0.02)"/><path d="M2.44,6.08A15.64,15.64,0,0,1,7.69.49l.17.28L7.59,1A13.73,13.73,0,0,0,5.93,2.44,16.23,16.23,0,0,0,3.85,5.11,11.49,11.49,0,0,0,2.93,7a.31.31,0,0,1-.11.14l-.7.49a.64.64,0,0,1,0-.09,13.35,13.35,0,0,0-.91-2.09,1.27,1.27,0,0,0-.41-.48L.5,4.8a1.4,1.4,0,0,1,.67-.38.48.48,0,0,1,.43.17,3,3,0,0,1,.55.84C2.25,5.64,2.34,5.85,2.44,6.08Z" transform="translate(-0.02 -0.02)"/></g></g></svg>