<svg xmlns="http://www.w3.org/2000/svg" viewBox="0 0 357.39 138.17"><defs><style>.cls-1{fill:#fff;}.cls-2{fill:#32776f;}</style></defs><title>lineAsset 3</title><g id="Layer_2" data-name="Layer 2"><g id="Layer_1-2" data-name="Layer 1"><rect class="cls-1" x="68.69" y="0.78" width="220" height="137.39"/><path class="cls-1" d="M0,68.69a68.7,68.7,0,0,0,68.69,68.7V0A68.7,68.7,0,0,0,0,68.69Z"/><path class="cls-1" d="M288.69,0V137.39A68.7,68.7,0,1,0,288.69,0Z"/><path class="cls-2" d="M63.12,22.82H111q15.66,0,22,7.45t3.7,21.19Q134,65.59,124,73.55t-27.47,8H80.73L74,116.13h-29ZM84.39,62.6h7.06q8.34,0,12.27-2.89a11.76,11.76,0,0,0,4.81-7.42A8.88,8.88,0,0,0,107,44.85q-2.34-3.06-10.42-3.06H88.41Z"/><path class="cls-2" d="M146.94,22.82h54q13.5,0,19.43,6.69t4,16.54a25.8,25.8,0,0,1-7.89,14.2,29.39,29.39,0,0,1-11.27,6.23q9.6,2.43,13.2,8.31t1.88,14.8a30.42,30.42,0,0,1-5.9,13,32.81,32.81,0,0,1-11,9.17q-4,2.1-11.54,3-10,1.28-13.16,1.28H128.91Zm22,36.6h12.53q6.75,0,9.84-2.32a10.55,10.55,0,0,0,3.94-6.72q.78-4.07-1.41-6.36t-8.76-2.29H172.38Zm-7.09,36.66h14.7q7.45,0,11-2.64a11.14,11.14,0,0,0,4.43-7.1,6.94,6.94,0,0,0-1.74-6.65q-2.53-2.52-10.11-2.51H165.52Z"/><path class="cls-2" d="M225.77,85.26l27.76-1.72q-.39,6.69,1.66,10.18,3.36,5.67,11.64,5.67a16.47,16.47,0,0,0,10.07-2.9,11,11,0,0,0,4.64-6.71,7.12,7.12,0,0,0-1.93-6.49q-2.62-2.87-13.72-5.41Q247.76,73.61,241,66.55t-4.67-18A29.64,29.64,0,0,1,243.17,35a36.21,36.21,0,0,1,14.48-10.06q9.08-3.66,23.65-3.66,17.88,0,26,6.65t7.08,21.17l-27.48,1.59q.14-6.3-2.78-9.17t-9-2.86a13.4,13.4,0,0,0-8,2.13,8.3,8.3,0,0,0-3.55,5.19,4.3,4.3,0,0,0,1.33,4q1.68,1.85,9,3.43,18.11,4.08,25.48,8.25T309.27,72a23.92,23.92,0,0,1,1.05,13.81,36,36,0,0,1-8.16,16.55,40.82,40.82,0,0,1-16.1,11.48q-9.66,3.92-23.22,3.92-23.8,0-31.2-9.17T225.77,85.26Z"/></g></g></svg>