<svg xmlns="http://www.w3.org/2000/svg" viewBox="0 0 382.39 374.36"><title>Asset 1</title><g id="Layer_2" data-name="Layer 2"><g id="Layer_1-2" data-name="Layer 1"><path d="M354.79,374.36H0v-355H1.79q169.32,0,338.63,0a5.58,5.58,0,0,0,3.11-.92c9.69-6,19.41-11.92,29.13-17.87.35-.21.74-.38,1.13-.59l8.6,12.15c-2.24,1.74-4.48,3.39-6.63,5.16C369,22.85,362.3,28.45,355.55,34a2.28,2.28,0,0,0-.77,2q0,38.37,0,76.75V374.36Zm-29.9-310c-2,2.13-9.31,10.31-11,12.19-16.7,18.35-32.21,37.68-47.09,57.52q-24.79,33-47.39,67.62c-16.17,24.74-31.47,50-44.33,76.63a3.73,3.73,0,0,1-1.15,1.32c-3.5,2.41-7,4.78-10.58,7.16-10.78,7.25-21.43,14.69-31.47,23-1.64,1.35-3.22,2.78-4.87,4.21-.73-2.32-1.37-4.55-2.13-6.73a609.47,609.47,0,0,0-31-72.68c-5-10.05-10.84-19.67-18.45-28.06C69.22,199.65,62,194.23,53.31,191c-.34-.12-.67-.26-1.05-.41a2.44,2.44,0,0,1,.28-.43c4.86-4.5,9.54-9.22,14.63-13.44,7-5.77,14.69-10.35,23.6-12.54,4.06-1,8.17-1.74,12.36-.76,4.47,1,8,3.72,11.2,6.82,6.07,5.86,10.6,12.86,14.81,20.1,6,10.34,10.88,21.24,15.65,32.19,1,2.38,2.12,4.76,3.24,7.27.28-.39.47-.61.62-.86a555.07,555.07,0,0,1,35.13-51.45c11.93-15.65,24.35-30.91,37.53-45.51,12.31-13.64,24.77-27.16,37.48-40.42C269,81,279.6,70.89,290,60.53c2-2,10.81-10.37,12.59-12.32-86.43.18-186.67.09-273.52.27,0,94.64,1.1,202.59,1.1,297.09,94.67,0,201.24.27,295.83.27C326,256.57,324.89,153.88,324.89,64.32Z"/></g></g></svg>